<?xml version="1.0" standalone="no"?>
<!DOCTYPE svg PUBLIC "-//W3C//DTD SVG 20010904//EN"
 "http://www.w3.org/TR/2001/REC-SVG-20010904/DTD/svg10.dtd">
<svg version="1.0" xmlns="http://www.w3.org/2000/svg"
 width="130.000000pt" height="168.000000pt" viewBox="0 0 130.000000 168.000000"
 preserveAspectRatio="xMidYMid meet">

<g transform="translate(0.000000,168.000000) scale(0.100000,-0.100000)"
fill="#FFFFFF" stroke="none">
<path d="M435 1660 c-3 -5 -2 -10 4 -10 5 0 13 5 16 10 3 6 2 10 -4 10 -5 0
-13 -4 -16 -10z"/>
<path d="M624 1663 c10 -3 56 -25 103 -49 46 -24 81 -39 78 -33 -10 15 -163
89 -182 88 -16 -1 -16 -2 1 -6z"/>
<path d="M360 1620 c-39 -20 -165 -142 -182 -175 -6 -11 22 15 62 58 39 42 92
89 116 103 24 14 44 28 44 30 0 6 -1 5 -40 -16z"/>
<path d="M830 1553 c5 -12 15 -25 20 -28 6 -4 28 -42 50 -86 22 -43 49 -85 60
-91 24 -15 27 -33 4 -24 -8 3 -12 2 -9 -4 3 -6 -4 -14 -17 -19 -13 -5 -34 -22
-48 -37 -21 -25 -22 -26 -2 -10 16 14 22 15 22 6 0 -8 12 -2 29 14 16 16 53
37 83 47 42 15 46 18 18 14 -46 -6 -87 29 -128 110 -28 56 -107 158 -82 108z"/>
<path d="M130 1370 c-6 -11 -8 -20 -6 -20 3 0 10 9 16 20 6 11 8 20 6 20 -3 0
-10 -9 -16 -20z"/>
<path d="M634 1333 c2 -10 8 -37 11 -60 4 -24 11 -43 15 -43 15 0 16 63 2 93
-15 30 -36 37 -28 10z"/>
<path d="M1155 1341 c11 -5 23 -7 27 -5 4 3 9 0 13 -6 3 -5 12 -10 18 -10 7 0
3 7 -7 15 -11 8 -31 15 -45 14 -23 0 -24 -1 -6 -8z"/>
<path d="M105 1310 c-20 -38 -75 -187 -81 -220 -5 -22 33 54 52 105 25 71 50
145 48 145 -2 0 -10 -13 -19 -30z"/>
<path d="M416 1301 c-18 -20 -31 -65 -15 -56 12 8 42 66 36 71 -2 2 -11 -4
-21 -15z"/>
<path d="M490 1302 c-25 -8 -50 -34 -43 -46 4 -6 7 -30 8 -54 1 -43 1 -43 -17
-20 -20 26 -22 21 -9 -15 9 -24 37 -35 104 -42 15 -1 30 -5 33 -8 8 -8 64 54
65 72 3 38 -4 58 -29 83 -26 26 -79 40 -112 30z m98 -42 c26 -16 32 -26 32
-53 0 -20 -7 -40 -17 -48 -17 -14 -76 -18 -106 -6 -17 6 -31 69 -22 97 11 33
66 38 113 10z"/>
<path d="M540 1251 c0 -6 5 -13 10 -16 15 -10 12 -25 -6 -25 -9 0 -18 9 -21
20 -3 11 -9 20 -13 20 -12 0 -19 -54 -9 -66 14 -17 62 -24 77 -12 18 15 15 52
-6 71 -21 19 -32 22 -32 8z"/>
<path d="M1212 1284 c0 -42 -6 -61 -25 -82 -9 -10 -14 -22 -10 -26 4 -3 -19
-33 -51 -65 -40 -41 -69 -61 -92 -66 -37 -6 -45 -20 -16 -27 18 -5 36 7 115
73 l31 26 21 -26 c46 -57 79 -126 91 -191 7 -36 14 -38 14 -4 0 38 -70 182
-103 212 l-25 24 24 35 c31 46 48 108 36 130 -8 13 -10 11 -10 -13z"/>
<path d="M1095 1290 c-87 -23 -110 -37 -140 -85 -21 -35 -26 -50 -17 -53 10
-3 10 -7 1 -18 -9 -11 -8 -14 5 -14 10 0 16 -9 16 -22 1 -22 1 -22 15 -4 8 10
24 24 37 30 13 6 24 20 26 31 5 22 -24 46 -46 38 -9 -4 -13 -2 -9 4 4 6 27 14
52 17 47 8 53 14 33 34 -9 9 -9 12 3 13 28 2 54 -3 68 -14 12 -10 13 -8 9 11
-4 12 -2 22 3 22 5 0 9 5 9 10 0 11 -22 11 -65 0z m-104 -153 l-23 -22 17 28
c10 15 20 25 23 22 3 -3 -5 -16 -17 -28z"/>
<path d="M377 1213 c-10 -10 -8 -45 2 -39 11 7 21 46 12 46 -4 0 -11 -3 -14
-7z"/>
<path d="M1107 1152 c-16 -16 -25 -32 -20 -35 14 -9 55 28 52 47 -3 15 -8 13
-32 -12z"/>
<path d="M380 1160 c-8 -5 -12 -12 -9 -15 4 -3 12 1 19 10 14 17 11 19 -10 5z"/>
<path d="M640 1162 c0 -5 -9 -19 -20 -32 -11 -13 -20 -20 -20 -15 0 4 -6 3
-13 -4 -8 -6 -23 -9 -34 -7 -12 3 -20 -1 -20 -10 0 -8 4 -14 9 -14 4 0 8 6 8
13 0 8 3 9 8 1 10 -16 41 -9 67 16 24 23 39 60 24 60 -5 0 -9 -4 -9 -8z"/>
<path d="M383 1128 c-13 -21 -12 -37 2 -31 8 2 13 13 12 24 -2 22 -3 23 -14 7z"/>
<path d="M470 1105 c0 -8 7 -15 16 -15 14 0 14 3 4 15 -7 8 -14 15 -16 15 -2
0 -4 -7 -4 -15z"/>
<path d="M387 1084 c-10 -11 2 -24 17 -18 8 3 17 0 21 -5 3 -6 11 -9 16 -5 14
8 -9 34 -31 34 -9 0 -20 -3 -23 -6z"/>
<path d="M12 1035 c0 -16 2 -22 5 -12 2 9 2 23 0 30 -3 6 -5 -1 -5 -18z"/>
<path d="M480 1000 c0 -11 5 -20 11 -20 5 0 8 -4 5 -9 -4 -5 0 -12 6 -14 10
-4 10 -7 1 -14 -7 -5 -14 -21 -15 -35 -1 -15 -5 -25 -9 -22 -4 2 -10 -6 -12
-18 l-4 -23 -2 23 c0 12 -5 22 -10 22 -5 0 -7 -9 -4 -20 5 -18 -5 -25 -30 -21
-4 1 -10 -6 -13 -14 -3 -8 -10 -12 -15 -9 -5 3 -7 11 -3 17 3 7 -2 3 -10 -7
-9 -11 -16 -16 -16 -10 0 5 -7 1 -14 -9 -8 -10 -18 -17 -23 -16 -4 1 -14 -9
-20 -22 -7 -13 -17 -23 -23 -22 -5 2 -17 -13 -26 -32 -9 -20 -19 -34 -21 -31
-3 2 0 15 7 28 7 15 0 11 -23 -14 -19 -21 -40 -38 -48 -38 -9 0 -7 6 7 18 12
9 24 27 27 39 4 18 -1 16 -29 -13 -19 -19 -40 -34 -45 -34 -6 0 -1 9 12 20
l24 19 -33 -9 c-27 -7 -33 -6 -28 5 3 9 -3 15 -17 17 -12 2 -21 8 -20 14 1 6
-5 11 -13 11 -25 0 -15 -25 26 -68 29 -31 43 -39 52 -32 9 7 29 7 63 -2 52
-14 95 -52 95 -85 0 -10 5 -20 11 -22 5 -2 11 -11 13 -20 3 -21 13 -32 29 -34
7 0 20 -2 30 -2 9 -1 17 -7 17 -13 0 -5 -4 -8 -8 -5 -5 3 -9 -1 -9 -9 0 -13 3
-13 17 0 23 21 33 19 27 -6 -4 -16 -3 -18 7 -9 10 7 17 6 26 -5 7 -8 9 -15 5
-15 -4 0 -2 -7 5 -15 9 -11 7 -19 -13 -39 -19 -19 -22 -28 -14 -42 9 -16 8
-17 -5 -7 -8 7 -19 9 -23 5 -15 -13 7 22 28 45 15 17 17 26 8 36 -11 14 -78
18 -73 4 1 -4 2 -10 2 -13 0 -4 6 -2 13 4 13 11 41 11 53 0 9 -10 -35 -30 -48
-22 -6 4 -8 3 -4 -4 3 -6 2 -14 -4 -17 -6 -4 -9 -1 -8 7 2 7 -4 12 -13 10 -21
-3 -49 30 -53 62 -4 40 -16 44 -16 5 1 -36 34 -82 81 -113 17 -11 31 -33 39
-63 14 -50 61 -108 87 -108 9 0 18 -5 20 -11 4 -13 -28 -15 -44 -1 -7 5 -13 8
-14 6 -7 -35 -6 -37 15 -33 18 3 22 -1 21 -19 -3 -31 4 -40 21 -26 15 12 9 33
-7 24 -15 -10 -10 11 6 25 8 6 20 8 27 4 21 -13 41 -14 57 -1 12 10 12 9 0
-10 -9 -15 -21 -21 -35 -19 -15 3 -21 0 -20 -10 1 -8 6 -13 12 -12 5 2 8 7 6
11 -1 5 2 6 8 2 7 -4 7 -12 0 -24 -5 -10 -6 -22 -2 -27 4 -5 -1 -2 -10 5 -13
10 -18 10 -18 2 0 -7 -5 -9 -12 -4 -20 12 -38 12 -38 0 0 -8 -4 -7 -12 1 -8 8
-15 9 -25 1 -9 -8 -17 -8 -27 0 -10 8 -16 9 -21 1 -7 -11 -26 -14 -22 -2 1 4
-3 8 -8 9 -6 0 -9 -3 -8 -8 4 -14 -7 -11 -24 6 -13 14 -18 14 -32 2 -17 -15
-54 -19 -45 -5 3 5 9 6 14 3 5 -3 12 0 16 6 4 8 3 9 -4 5 -7 -4 -12 -3 -12 3
0 5 5 13 10 16 6 4 8 11 4 16 -3 5 -10 7 -15 3 -5 -3 -7 -9 -4 -14 3 -5 -4
-18 -17 -29 -20 -19 -23 -20 -40 -4 -21 19 -24 5 -4 -22 12 -17 23 -18 147
-10 162 9 215 8 239 -5 25 -13 164 -21 230 -12 50 6 55 9 55 32 0 14 3 30 7
36 11 16 -3 26 -18 13 -7 -6 -10 -18 -7 -27 6 -15 4 -15 -10 -4 -9 8 -16 17
-15 20 2 19 -4 23 -17 12 -8 -7 -12 -17 -9 -22 7 -12 -16 -29 -28 -22 -4 3 -8
10 -8 15 0 6 5 7 12 3 7 -4 8 -3 4 5 -10 15 -27 4 -24 -16 2 -9 -3 -18 -11
-21 -8 -3 -11 0 -7 6 6 10 1 10 -39 2 -5 -1 -12 -1 -15 0 -16 6 -52 5 -56 -2
-9 -15 -24 -8 -24 11 0 10 7 21 15 25 13 5 14 2 4 -17 -9 -16 -9 -19 0 -11 15
14 22 52 10 59 -5 3 -20 -5 -34 -19 -33 -33 -32 -20 1 15 26 27 26 27 6 38
-14 7 -23 8 -27 1 -3 -5 -11 -10 -16 -10 -6 0 -8 4 -4 9 3 6 -4 8 -15 6 -11
-2 -20 0 -20 6 0 5 8 10 18 11 9 0 22 2 29 2 24 2 39 38 25 60 -14 23 -11 46
7 58 16 10 18 16 9 32 -9 17 -5 25 32 58 46 41 60 46 60 23 0 -10 10 -15 30
-15 22 0 30 -5 30 -18 0 -10 8 -25 18 -34 9 -9 25 -27 34 -41 19 -27 54 -41
65 -25 4 7 1 8 -8 3 -8 -5 -5 1 5 13 22 25 31 28 23 8 -7 -18 12 -36 31 -29 9
4 13 2 9 -4 -4 -7 0 -10 10 -9 12 2 18 12 18 31 0 16 5 30 12 32 17 6 26 -16
14 -31 -11 -13 -4 -29 9 -21 7 4 5 81 -3 117 -1 6 13 16 31 21 34 10 84 65 97
105 4 13 19 38 35 56 24 27 27 37 21 66 l-8 35 -9 -30 c-4 -16 -7 -37 -5 -45
2 -10 -3 -8 -14 5 -15 20 -16 20 -13 -5 2 -14 -2 -25 -9 -26 -7 -1 -16 -3 -20
-4 -5 -1 -10 -2 -13 -2 -3 0 -6 -17 -7 -39 0 -22 3 -36 8 -33 5 3 7 9 4 14 -3
5 -1 11 5 15 5 3 10 0 10 -7 0 -19 -29 -57 -30 -40 0 7 -5 10 -12 6 -7 -4 -8
-3 -4 5 8 13 -12 44 -24 36 -4 -2 -5 -16 -2 -30 2 -14 0 -25 -7 -25 -5 0 -8 6
-5 14 3 8 0 17 -5 21 -6 3 -9 10 -7 14 3 4 -2 8 -10 8 -10 0 -11 -4 -4 -11 13
-13 13 -47 -1 -44 -6 2 -13 -8 -15 -22 -3 -13 -9 -29 -15 -35 -7 -7 -9 -6 -7
4 5 23 -53 21 -79 -3 -16 -14 -20 -23 -12 -32 7 -8 3 -20 -15 -40 -24 -29 -25
-29 -43 -10 -11 12 -12 15 -2 8 22 -17 42 4 28 30 -9 16 -13 17 -27 6 -9 -7
-7 0 6 16 17 22 20 32 11 43 -10 11 -16 11 -37 -3 -17 -11 -22 -12 -17 -3 5 8
-1 6 -12 -4 -28 -24 -40 -21 -17 5 12 13 13 18 4 13 -25 -16 -47 -15 -60 0
-10 12 -10 18 0 31 8 8 9 14 4 13 -23 -4 -25 3 -9 27 9 15 12 23 6 20 -15 -10
-14 7 2 23 10 11 9 12 -3 5 -11 -6 -11 -1 3 20 21 32 16 45 -10 25 -10 -7 -8
-2 5 12 24 28 29 44 10 33 -10 -5 -10 -4 -1 6 10 11 15 11 30 -1 16 -12 17
-12 6 2 -7 9 -10 19 -6 22 3 4 0 7 -8 7 -9 1 -6 7 9 19 15 13 18 21 10 24 -9
3 -5 12 12 28 13 13 27 24 30 24 3 0 18 11 33 25 16 14 34 25 41 25 19 0 46
25 46 42 0 9 5 11 12 7 11 -7 53 -8 94 -2 6 1 11 6 12 12 0 6 4 22 7 36 l7 25
-22 -25 -22 -25 7 30 6 30 -22 -32 c-22 -34 -35 -44 -26 -19 3 8 -1 17 -9 20
-9 3 -13 10 -10 15 3 5 2 20 -3 33 -8 19 -10 15 -12 -27 -1 -44 -2 -46 -9 -20
-6 22 -8 25 -9 9 0 -12 -7 -27 -15 -34 -8 -6 -13 -17 -10 -24 3 -8 -2 -16 -12
-20 -14 -5 -15 -4 -4 9 7 9 8 15 2 15 -6 0 -20 -12 -32 -27 -19 -25 -20 -26
-15 -5 4 13 2 22 -5 22 -6 0 -9 -3 -6 -8 2 -4 -2 -18 -10 -32 -14 -24 -14 -24
-8 14 5 28 4 37 -5 32 -6 -4 -11 -14 -11 -22 0 -22 -30 -75 -39 -70 -9 6 -54
-38 -46 -46 3 -2 -7 -15 -23 -29 l-27 -24 23 26 c15 18 20 29 13 34 -8 4 -4
13 10 24 24 19 35 56 19 66 -5 3 -7 0 -5 -7 3 -8 -6 -25 -20 -38 -14 -13 -25
-18 -25 -12 0 6 5 14 10 17 6 3 10 11 10 17 0 6 -9 -1 -21 -16 -30 -38 -44
-32 -20 10 23 39 9 35 -27 -8 -33 -39 -45 -35 -21 6 13 22 16 37 9 41 -5 3
-10 0 -10 -8 0 -17 -25 -40 -48 -43 -8 -2 -19 -8 -23 -16 -4 -7 -11 -9 -15 -6
-3 4 9 16 28 28 19 11 40 32 47 48 l13 27 -29 -27 c-16 -16 -33 -28 -38 -28
-5 0 1 9 13 20 21 20 32 57 13 46 -12 -8 -32 48 -35 96 0 9 -3 15 -6 13 -3 -2
-12 0 -20 6 -11 6 -12 9 -2 9 7 0 10 5 7 10 -10 17 -25 11 -25 -10z m-100
-230 c-6 -11 -12 -20 -14 -20 -2 0 -2 9 1 20 3 11 9 20 15 20 5 0 4 -9 -2 -20z
m83 -49 c-6 -23 -63 -80 -63 -63 0 7 5 12 10 12 6 0 20 16 31 35 24 39 29 44
22 16z m53 4 c-1 -8 -10 -23 -21 -35 -24 -27 -7 -26 22 2 13 12 23 16 23 10 0
-7 -5 -12 -11 -12 -5 0 -7 -4 -4 -10 9 -15 25 -12 25 6 0 8 5 12 10 9 6 -4 7
-12 4 -18 -5 -8 -3 -8 7 1 19 18 28 15 22 -8 -3 -10 -10 -18 -17 -17 -6 1 -10
-3 -9 -8 1 -6 -12 -18 -28 -27 -30 -18 -40 -10 -14 12 8 7 12 17 9 22 -4 6
-17 -3 -31 -18 -20 -24 -23 -26 -21 -9 1 11 -2 20 -7 20 -5 0 -9 -6 -7 -12 2
-7 -1 -13 -5 -14 -4 0 -20 -3 -35 -5 -34 -6 -38 15 -7 34 17 11 20 11 13 0 -4
-7 8 1 25 17 18 17 37 40 42 53 10 25 18 29 15 7z m129 5 c-3 -5 -12 -10 -18
-10 -7 0 -6 4 3 10 19 12 23 12 15 0z m-230 -30 c-16 -16 -34 -30 -39 -30 -10
1 53 59 63 60 3 0 -8 -13 -24 -30z m217 -44 c7 4 8 2 4 -5 -4 -6 -11 -9 -15
-7 -4 3 -23 -10 -41 -29 -19 -19 -38 -35 -43 -35 -6 0 2 11 17 25 15 14 24 30
20 37 -4 7 -3 8 4 4 7 -4 17 4 24 21 12 26 13 26 16 5 2 -13 8 -19 14 -16z
m48 4 c0 -6 -7 -22 -16 -35 -9 -14 -13 -32 -10 -42 4 -10 4 -14 0 -10 -4 4
-16 -1 -27 -10 -20 -18 -20 -18 -4 8 10 14 14 28 11 31 -8 8 24 68 36 68 6 0
10 -5 10 -10z m-290 -31 c0 -5 -4 -9 -8 -9 -5 0 -9 7 -9 15 0 8 4 12 9 9 4 -3
8 -9 8 -15z m-22 -33 c22 15 39 4 26 -17 -4 -8 -9 -7 -15 2 -6 10 -9 11 -9 2
0 -21 -35 -15 -56 9 l-19 22 26 -16 c23 -15 29 -15 47 -2z m97 4 c-3 -5 -12
-10 -18 -10 -7 0 -6 4 3 10 19 12 23 12 15 0z m69 -32 c16 -14 22 -15 35 -5
14 10 14 10 4 -4 -7 -9 -10 -18 -7 -21 2 -3 -2 -8 -11 -11 -8 -4 -15 -1 -15 5
0 7 -5 6 -15 -2 -8 -7 -15 -9 -15 -6 0 4 -9 2 -20 -4 -13 -7 -20 -7 -20 -1 0
10 26 28 43 30 18 2 10 15 -11 16 -13 1 -29 -6 -35 -15 -7 -9 -19 -20 -27 -25
-12 -6 -13 -5 -2 6 17 18 15 34 -3 19 -8 -7 -15 -10 -15 -6 0 3 -12 1 -26 -4
-20 -8 -25 -7 -22 2 3 7 10 14 16 14 7 1 13 3 15 4 1 1 15 4 31 6 16 2 34 8
40 14 13 13 37 9 60 -12z m81 12 c-3 -5 -12 -10 -18 -10 -7 0 -6 4 3 10 19 12
23 12 15 0z m37 -52 c-7 -7 -12 -8 -12 -2 0 14 12 26 19 19 2 -3 -1 -11 -7
-17z m488 2 c0 -5 -2 -10 -4 -10 -3 0 -8 5 -11 10 -3 6 -1 10 4 10 6 0 11 -4
11 -10z m-620 -75 c0 -11 -44 -44 -52 -39 -6 4 3 14 19 24 32 21 33 22 33 15z
m21 -18 c-10 -9 -11 -8 -5 6 3 10 9 15 12 12 3 -3 0 -11 -7 -18z m-11 -50
c-30 -28 -45 -41 -35 -28 17 20 17 23 4 18 -13 -4 -16 -1 -12 14 5 19 25 39
22 22 -6 -33 4 -34 31 -4 17 18 27 38 24 44 -5 8 -2 7 7 -1 11 -10 4 -21 -41
-65z m80 54 c0 -5 -7 -14 -15 -21 -16 -14 -18 -10 -9 14 6 17 24 22 24 7z
m480 -6 c-7 -9 -15 -13 -17 -11 -7 7 7 26 19 26 6 0 6 -6 -2 -15z m-36 -10
c-4 -8 -8 -15 -10 -15 -2 0 -4 7 -4 15 0 8 4 15 10 15 5 0 7 -7 4 -15z m-209
-15 c3 -5 -9 -17 -27 -26 l-33 -17 25 26 c29 31 27 30 35 17z m97 -19 c-5 -14
-4 -14 14 -1 10 8 4 -2 -13 -21 -34 -36 -43 -55 -20 -44 6 4 3 0 -7 -9 -31
-25 -40 -6 -11 24 20 21 23 29 13 34 -10 5 -10 7 0 12 6 3 10 9 8 13 -3 4 1 8
8 8 9 0 12 -7 8 -16z m-339 -20 c-3 -11 -15 -28 -26 -38 -22 -18 -22 -18 -6 2
9 11 19 28 22 38 9 23 16 22 10 -2z m29 -13 c-7 -7 -12 -8 -12 -2 0 14 12 26
19 19 2 -3 -1 -11 -7 -17z m-58 0 c-3 -5 -9 -6 -13 -3 -5 2 -16 -4 -26 -15
-10 -11 -23 -20 -28 -20 -5 0 1 11 15 23 24 22 63 34 52 15z m394 -45 c-15
-17 -14 -48 1 -39 4 3 8 -1 8 -9 0 -11 -4 -12 -13 -4 -7 6 -19 7 -26 3 -10 -6
-9 -3 1 9 11 14 11 17 0 17 -8 0 -6 7 7 19 24 25 43 27 22 4z m47 7 c3 -6 -1
-7 -9 -4 -18 7 -21 14 -7 14 6 0 13 -4 16 -10z m-506 -86 c-14 -17 -33 -19
-23 -1 4 6 4 9 -1 5 -4 -4 -15 -2 -24 4 -9 8 -8 3 3 -10 11 -12 26 -20 33 -18
14 6 18 -10 4 -18 -8 -5 -42 22 -68 55 -11 13 -8 15 22 14 28 -2 33 1 24 11
-6 8 -15 11 -20 8 -5 -3 -14 -2 -20 2 -8 4 -4 11 11 19 22 12 26 10 47 -22 19
-27 21 -38 12 -49z m61 40 c-22 -26 -28 -40 -21 -47 16 -16 14 -23 -8 -24 -34
-3 -31 23 7 65 46 50 66 55 22 6z m31 3 l-24 -22 19 27 c10 14 21 24 23 22 3
-3 -6 -15 -18 -27z m-61 8 c-7 -8 -18 -15 -24 -15 -6 0 -2 7 8 15 25 19 32 19
16 0z m55 -44 c-3 -2 -1 -9 5 -15 5 -7 5 -18 0 -26 -7 -11 -12 -9 -28 10 -23
29 -22 36 7 36 11 0 18 -2 16 -5z m242 -157 c-3 -4 -2 -16 4 -28 10 -20 9 -20
-5 -2 -14 17 -13 36 1 36 4 0 3 -3 0 -6z"/>
<path d="M13 945 c0 -8 4 -12 9 -9 5 3 6 10 3 15 -9 13 -12 11 -12 -6z"/>
<path d="M11 851 c-1 -46 2 -60 14 -65 11 -4 14 -2 8 7 -4 6 -9 31 -10 55 -2
32 0 41 9 36 9 -5 9 -2 -1 9 -7 9 -14 17 -16 17 -1 0 -3 -26 -4 -59z"/>
<path d="M1275 804 c-4 -26 -9 -33 -15 -24 -4 7 -7 21 -5 30 2 9 -2 17 -9 17
-8 0 -11 -20 -10 -59 0 -41 -3 -57 -11 -54 -8 3 -10 -4 -7 -21 4 -20 2 -24 -9
-18 -11 7 -12 6 -2 -6 7 -8 10 -27 7 -42 -7 -40 3 -33 29 21 24 46 54 178 44
188 -2 3 -8 -12 -12 -32z m-15 -65 c0 -6 -4 -7 -10 -4 -5 3 -10 11 -10 16 0 6
5 7 10 4 6 -3 10 -11 10 -16z"/>
<path d="M748 803 c5 -27 11 -25 16 4 3 11 -1 20 -8 20 -8 0 -11 -9 -8 -24z"/>
<path d="M1016 822 c-3 -5 1 -9 9 -9 8 0 12 4 9 9 -3 4 -7 8 -9 8 -2 0 -6 -4
-9 -8z"/>
<path d="M196 792 c-3 -5 1 -9 9 -9 8 0 12 4 9 9 -3 4 -7 8 -9 8 -2 0 -6 -4
-9 -8z"/>
<path d="M1163 725 c0 -8 4 -12 9 -9 5 3 6 10 3 15 -9 13 -12 11 -12 -6z"/>
<path d="M875 681 c-3 -5 -2 -12 3 -15 5 -3 9 1 9 9 0 17 -3 19 -12 6z"/>
<path d="M975 681 c-3 -5 -2 -12 3 -15 5 -3 9 1 9 9 0 17 -3 19 -12 6z"/>
<path d="M1104 678 c-4 -7 -4 -10 1 -6 4 4 15 2 24 -5 14 -11 14 -10 2 6 -16
20 -18 21 -27 5z"/>
<path d="M1156 681 c-4 -5 -2 -12 3 -15 5 -4 12 -2 15 3 4 5 2 12 -3 15 -5 4
-12 2 -15 -3z"/>
<path d="M746 588 c3 -5 10 -6 15 -3 13 9 11 12 -6 12 -8 0 -12 -4 -9 -9z"/>
<path d="M786 592 c-3 -5 1 -9 9 -9 8 0 12 4 9 9 -3 4 -7 8 -9 8 -2 0 -6 -4
-9 -8z"/>
<path d="M876 588 c3 -5 10 -6 15 -3 13 9 11 12 -6 12 -8 0 -12 -4 -9 -9z"/>
<path d="M926 588 c3 -5 10 -6 15 -3 13 9 11 12 -6 12 -8 0 -12 -4 -9 -9z"/>
<path d="M973 585 c0 -8 4 -12 9 -9 5 3 6 10 3 15 -9 13 -12 11 -12 -6z"/>
<path d="M1016 592 c-3 -5 1 -9 9 -9 8 0 12 4 9 9 -3 4 -7 8 -9 8 -2 0 -6 -4
-9 -8z"/>
<path d="M745 551 c-3 -5 -2 -12 3 -15 5 -3 9 1 9 9 0 17 -3 19 -12 6z"/>
<path d="M875 551 c-3 -5 -2 -12 3 -15 5 -3 9 1 9 9 0 17 -3 19 -12 6z"/>
<path d="M1014 543 c2 -10 6 -17 10 -16 15 3 16 11 2 22 -12 10 -14 9 -12 -6z"/>
<path d="M926 538 c3 -5 10 -6 15 -3 13 9 11 12 -6 12 -8 0 -12 -4 -9 -9z"/>
<path d="M1056 538 c3 -5 10 -6 15 -3 13 9 11 12 -6 12 -8 0 -12 -4 -9 -9z"/>
<path d="M786 498 c3 -5 10 -6 15 -3 13 9 11 12 -6 12 -8 0 -12 -4 -9 -9z"/>
<path d="M824 498 c-4 -7 -4 -10 1 -6 4 4 15 2 24 -5 14 -11 14 -10 2 6 -16
20 -18 21 -27 5z"/>
<path d="M874 499 c-8 -14 14 -19 25 -6 8 10 7 14 -5 14 -8 0 -17 -4 -20 -8z"/>
<path d="M925 501 c-3 -5 -2 -12 3 -15 5 -3 9 1 9 9 0 17 -3 19 -12 6z"/>
<path d="M975 501 c-3 -5 -2 -12 3 -15 5 -3 9 1 9 9 0 17 -3 19 -12 6z"/>
<path d="M331 464 c6 -7 16 -11 21 -8 11 7 3 17 -18 20 -12 2 -13 -1 -3 -12z"/>
<path d="M743 453 c0 -9 4 -10 14 -2 7 6 13 12 13 14 0 1 -6 2 -13 2 -8 0 -14
-6 -14 -14z"/>
<path d="M786 461 c-4 -5 -2 -12 3 -15 5 -4 12 -2 15 3 4 5 2 12 -3 15 -5 4
-12 2 -15 -3z"/>
<path d="M836 461 c-4 -5 -2 -12 3 -15 5 -4 12 -2 15 3 4 5 2 12 -3 15 -5 4
-12 2 -15 -3z"/>
<path d="M969 468 c0 -2 -2 -11 -4 -21 -3 -15 -1 -16 11 -6 7 6 11 15 8 20 -5
9 -13 12 -15 7z"/>
<path d="M876 452 c-3 -5 1 -9 9 -9 8 0 12 4 9 9 -3 4 -7 8 -9 8 -2 0 -6 -4
-9 -8z"/>
<path d="M320 425 c0 -2 6 -8 13 -14 10 -8 14 -7 14 2 0 8 -6 14 -14 14 -7 0
-13 -1 -13 -2z"/>
<path d="M879 426 c0 -1 -2 -9 -4 -19 -3 -18 -3 -18 16 -1 10 9 19 18 19 19 0
2 -29 3 -31 1z"/>
<path d="M860 370 c0 -5 5 -10 11 -10 5 0 7 -5 3 -12 -4 -7 -3 -8 5 -4 9 6 9
11 0 22 -14 17 -19 18 -19 4z"/>
<path d="M869 238 c7 -10 11 -18 8 -18 -3 0 -2 -13 3 -29 6 -21 4 -35 -6 -49
-9 -13 -11 -23 -4 -27 5 -3 10 -5 11 -3 7 30 10 45 11 55 1 6 7 9 15 6 7 -3
11 -8 8 -12 -2 -4 2 -8 10 -8 8 0 11 5 8 10 -4 6 0 8 9 4 9 -3 21 0 28 6 10 9
11 9 6 0 -3 -6 -1 -15 5 -19 7 -4 9 -3 5 4 -3 6 -2 13 4 17 7 4 7 12 0 24 -5
10 -7 21 -3 24 3 4 -5 4 -17 2 -13 -3 -29 0 -36 6 -8 7 -14 7 -19 -1 -9 -14
-28 -13 -19 3 4 6 4 9 -1 5 -4 -4 -15 -2 -24 5 -14 11 -14 10 -2 -5z m105 -26
c3 -5 -1 -9 -9 -9 -8 0 -12 4 -9 9 3 4 7 8 9 8 2 0 6 -4 9 -8z"/>
<path d="M1012 228 c-7 -7 -8 -17 -2 -29 7 -12 6 -20 0 -24 -6 -4 -8 -11 -4
-16 4 -6 11 -6 19 1 18 15 36 4 32 -20 -4 -23 -26 -50 -39 -47 -6 1 -12 -6
-13 -16 -2 -9 0 -15 5 -12 4 3 10 -2 13 -9 4 -10 0 -13 -14 -11 -10 2 -19 -1
-19 -8 0 -8 -3 -8 -12 1 -8 8 -8 15 1 25 9 11 8 17 -4 27 -8 7 -16 10 -16 6
-1 -3 -2 -9 -3 -13 -1 -5 -5 -14 -10 -22 -6 -10 -5 -12 2 -7 7 4 12 3 12 -2 0
-14 -26 -22 -37 -11 -5 5 -9 1 -10 -11 -2 -21 11 -27 22 -11 3 5 21 7 40 4 20
-3 35 -1 35 4 0 5 12 8 28 6 15 -3 39 0 55 6 21 8 27 17 27 40 0 15 -7 34 -15
41 -12 10 -14 7 -12 -18 1 -17 7 -28 12 -25 6 3 3 -1 -5 -10 -18 -18 -66 -34
-56 -19 4 6 -1 15 -9 19 -14 8 -13 12 5 28 21 19 29 8 8 -13 -7 -7 -10 -12 -7
-13 2 0 11 -2 20 -4 12 -2 15 6 14 39 -2 46 -20 87 -37 83 -6 -1 -13 4 -16 12
-3 10 0 11 9 5 11 -6 12 -5 2 8 -7 8 -10 18 -6 21 3 4 4 7 2 7 -3 0 -10 -5
-17 -12z m-37 -147 c3 -5 2 -12 -3 -15 -5 -3 -9 1 -9 9 0 17 3 19 12 6z"/>
<path d="M850 171 c0 -6 4 -12 8 -15 5 -3 9 1 9 9 0 8 -4 15 -9 15 -4 0 -8 -4
-8 -9z"/>
<path d="M411 136 c-10 -11 -9 -14 1 -12 14 2 23 15 15 22 -2 2 -10 -2 -16
-10z"/>
<path d="M372 123 c1 -10 -1 -23 -4 -29 -4 -6 -2 -11 5 -11 7 0 13 13 12 29 0
15 -4 28 -8 28 -5 0 -7 -8 -5 -17z"/>
<path d="M915 130 c-3 -5 -5 -10 -3 -11 33 -8 38 -7 27 7 -14 17 -16 17 -24 4z"/>
<path d="M967 118 c19 -21 31 -25 14 -5 -6 8 -9 16 -6 19 3 2 -2 5 -10 5 -13
0 -13 -3 2 -19z"/>
<path d="M1003 125 c0 -7 6 -12 14 -11 19 3 21 19 2 21 -9 2 -16 -3 -16 -10z"/>
<path d="M316 121 c-14 -5 -16 -10 -8 -15 7 -4 10 -11 8 -15 -3 -4 2 -8 10 -8
10 0 11 4 4 11 -7 7 -3 14 12 23 25 14 6 17 -26 4z"/>
<path d="M406 102 c-3 -5 1 -15 8 -21 11 -10 14 -9 12 3 -3 21 -13 29 -20 18z"/>
<path d="M449 96 c6 -7 9 -15 6 -18 -3 -2 1 -5 9 -5 20 0 13 30 -8 33 -13 2
-14 -1 -7 -10z"/>
<path d="M236 84 c-9 -23 -7 -36 3 -30 12 8 21 46 11 46 -4 0 -11 -7 -14 -16z"/>
<path d="M916 81 c-4 -5 -2 -12 3 -15 5 -4 12 -2 15 3 4 5 2 12 -3 15 -5 4
-12 2 -15 -3z"/>
</g>
</svg>
